<?xml version="1.0" encoding="UTF-8" standalone="no"?>
<!-- Created with Inkscape (http://www.inkscape.org/) -->

<svg
   xmlns:dc="http://purl.org/dc/elements/1.1/"
   xmlns:cc="http://creativecommons.org/ns#"
   xmlns:rdf="http://www.w3.org/1999/02/22-rdf-syntax-ns#"
   xmlns:svg="http://www.w3.org/2000/svg"
   xmlns="http://www.w3.org/2000/svg"
   xmlns:sodipodi="http://sodipodi.sourceforge.net/DTD/sodipodi-0.dtd"
   xmlns:inkscape="http://www.inkscape.org/namespaces/inkscape"
   width="766.03717"
   height="450.29062"
   id="svg2"
   version="1.1"
   inkscape:version="0.48.4 r9939"
   sodipodi:docname="analog-trigger.pdf">
  <defs
     id="defs4">
    <clipPath
       id="clipEmfPath1"
       clipPathUnits="userSpaceOnUse">
      <rect
         id="rect5027"
         height="8718.0703"
         width="11812.211"
         y="0"
         x="0" />
    </clipPath>
    <filter
       id="filter3859"
       inkscape:label="Drop Shadow"
       color-interpolation-filters="sRGB">
      <feFlood
         id="feFlood3861"
         flood-opacity="0.5"
         flood-color="rgb(0,0,0)"
         result="flood" />
      <feComposite
         id="feComposite3863"
         in2="SourceGraphic"
         in="flood"
         operator="in"
         result="composite1" />
      <feGaussianBlur
         id="feGaussianBlur3865"
         stdDeviation="4"
         result="blur" />
      <feOffset
         id="feOffset3867"
         dx="4"
         dy="4"
         result="offset" />
      <feComposite
         id="feComposite3869"
         in2="offset"
         in="SourceGraphic"
         operator="over"
         result="composite2" />
    </filter>
  </defs>
  <sodipodi:namedview
     id="base"
     pagecolor="#ffffff"
     bordercolor="#666666"
     borderopacity="1.0"
     inkscape:pageopacity="0.0"
     inkscape:pageshadow="2"
     inkscape:zoom="0.98994949"
     inkscape:cx="350.37456"
     inkscape:cy="353.6272"
     inkscape:document-units="px"
     inkscape:current-layer="g8791"
     showgrid="false"
     fit-margin-top="0"
     fit-margin-left="0"
     fit-margin-right="0"
     fit-margin-bottom="0"
     inkscape:window-width="1680"
     inkscape:window-height="987"
     inkscape:window-x="-8"
     inkscape:window-y="-8"
     inkscape:window-maximized="1" />
  <metadata
     id="metadata7">
    <rdf:RDF>
      <cc:Work
         rdf:about="">
        <dc:format>image/svg+xml</dc:format>
        <dc:type
           rdf:resource="http://purl.org/dc/dcmitype/StillImage" />
        <dc:title></dc:title>
      </cc:Work>
    </rdf:RDF>
  </metadata>
  <g
     inkscape:label="Ebene 1"
     inkscape:groupmode="layer"
     id="layer1"
     transform="translate(157.95836,-435.69877)">
    <g
       id="g8791"
       transform="translate(-71.364438,322.55177)">
      <rect
         style="fill:#ffffff;fill-opacity:1;stroke:#000000;stroke-width:1.55199933;stroke-linecap:round;stroke-linejoin:round;stroke-miterlimit:4;stroke-opacity:1;stroke-dasharray:none;filter:url(#filter3859)"
         id="rect3857"
         width="892.92285"
         height="524.21716"
         x="-13.35091"
         y="-4.1643238"
         transform="matrix(0.74531628,0,0,0.74531628,-26.378712,146.03711)" />
      <path
         id="path8793"
         d="m -24.222162,237.95279 218.569302,0"
         style="fill:none;stroke:#000000;stroke-width:1.51541388px;stroke-linecap:round;stroke-linejoin:round;stroke-opacity:1;stroke-dasharray:none"
         inkscape:connector-curvature="0" />
      <text
         id="text8795"
         style="font-size:14.92099762px;font-style:normal;font-weight:normal;text-align:start;text-anchor:start;fill:#000000;font-family:Arial"
         y="271.00046"
         x="264.58075"
         xml:space="preserve">rising</text>
      <path
         id="path8797"
         d="m 314.12311,289.06887 c 27.27745,0 49.36753,-11.83189 49.36753,-26.40318 0,-14.62957 -22.09008,-26.46145 -49.30924,-26.46145 0,0 0,0 -0.0583,0 13.63873,10.9576 16.43642,31.64883 6.17823,46.2784 -1.74855,2.50626 -3.78854,4.7211 -6.17823,6.58623"
         style="fill:#ffffff;fill-opacity:1;fill-rule:evenodd;stroke:none"
         inkscape:connector-curvature="0" />
      <path
         id="path8799"
         d="m 314.12311,289.06887 c 27.27745,0 49.36753,-11.83189 49.36753,-26.40318 0,-14.62957 -22.09008,-26.46145 -49.30924,-26.46145 0,0 0,0 -0.0583,0 13.63873,10.9576 16.43642,31.64883 6.17823,46.2784 -1.74855,2.50626 -3.78854,4.7211 -6.17823,6.58623"
         style="fill:none;stroke:#000000;stroke-width:1.51541388px;stroke-linecap:round;stroke-linejoin:round;stroke-opacity:1;stroke-dasharray:none"
         inkscape:connector-curvature="0" />
      <path
         id="path8801"
         d="m 303.5735,236.20424 c 13.69702,7.11078 19.40896,24.7129 12.70617,39.34247 -2.68112,5.8868 -7.16908,10.66618 -12.70617,13.52216"
         style="fill:none;stroke:#000000;stroke-width:1.51541388px;stroke-linecap:round;stroke-linejoin:round;stroke-opacity:1;stroke-dasharray:none"
         inkscape:connector-curvature="0" />
      <path
         id="path8803"
         d="m 261.31678,274.96386 50.35836,0"
         style="fill:none;stroke:#000000;stroke-width:1.51541388px;stroke-linecap:round;stroke-linejoin:round;stroke-opacity:1;stroke-dasharray:none"
         inkscape:connector-curvature="0" />
      <path
         id="path8805"
         d="m 240.15927,250.30924 75.77068,0"
         style="fill:none;stroke:#000000;stroke-width:1.51541388px;stroke-linecap:round;stroke-linejoin:round;stroke-opacity:1;stroke-dasharray:none"
         inkscape:connector-curvature="0" />
      <path
         id="path8807"
         d="m 363.49064,262.6074 158.59388,0"
         style="fill:none;stroke:#000000;stroke-width:1.51541388px;stroke-linecap:round;stroke-linejoin:round;stroke-opacity:1;stroke-dasharray:none"
         inkscape:connector-curvature="0" />
      <text
         id="text8809"
         style="font-size:14.92099762px;font-style:normal;font-weight:normal;text-align:start;text-anchor:start;fill:#000000;font-family:Arial"
         y="233.69797"
         x="-4.9297791"
         xml:space="preserve">sample data</text>
      <path
         id="path8811"
         d="m 116.76961,262.6074 77.57753,0"
         style="fill:none;stroke:#000000;stroke-width:1.51541388px;stroke-linecap:round;stroke-linejoin:round;stroke-opacity:1;stroke-dasharray:none"
         inkscape:connector-curvature="0" />
      <text
         id="text8813"
         style="font-size:14.92099762px;font-style:normal;font-weight:normal;text-align:start;text-anchor:start;fill:#000000;font-family:Arial"
         y="257.94458"
         x="126.56152"
         xml:space="preserve">threshold</text>
      <path
         id="path8815"
         d="m 194.34714,277.76155 0,-54.9629 45.81213,27.51059 -45.81213,27.45231 z"
         style="fill:#ffffff;fill-opacity:1;fill-rule:evenodd;stroke:none"
         inkscape:connector-curvature="0" />
      <path
         id="path8817"
         d="m 194.34714,277.76155 0,-54.9629 45.81213,27.51059 -45.81213,27.45231 z"
         style="fill:none;stroke:#000000;stroke-width:1.51541388px;stroke-linecap:round;stroke-linejoin:round;stroke-opacity:1;stroke-dasharray:none"
         inkscape:connector-curvature="0" />
      <path
         id="path8819"
         d="m 197.84425,237.95279 7.0525,0"
         style="fill:none;stroke:#000000;stroke-width:1.51541388px;stroke-linecap:round;stroke-linejoin:round;stroke-opacity:1;stroke-dasharray:none"
         inkscape:connector-curvature="0" />
      <path
         id="path8821"
         d="m 201.39965,234.45568 0,7.0525"
         style="fill:none;stroke:#000000;stroke-width:1.51541388px;stroke-linecap:round;stroke-linejoin:round;stroke-opacity:1;stroke-dasharray:none"
         inkscape:connector-curvature="0" />
      <path
         id="path8823"
         d="m 197.84425,262.6074 7.0525,0"
         style="fill:none;stroke:#000000;stroke-width:1.51541388px;stroke-linecap:round;stroke-linejoin:round;stroke-opacity:1;stroke-dasharray:none"
         inkscape:connector-curvature="0" />
      <path
         id="path8825"
         d="m 315.23053,274.96386 c 0,-2.7394 -2.38969,-4.95424 -5.30394,-4.95424 -2.91426,0 -5.30395,2.21484 -5.30395,4.95424 0,2.7394 2.38969,4.95424 5.30395,4.95424 2.91425,0 5.30394,-2.21484 5.30394,-4.95424"
         style="fill:#ffffff;fill-opacity:1;fill-rule:evenodd;stroke:none"
         inkscape:connector-curvature="0" />
      <path
         id="path8827"
         d="m 315.23053,274.96386 c 0,-2.7394 -2.38969,-4.95424 -5.30394,-4.95424 -2.91426,0 -5.30395,2.21484 -5.30395,4.95424 0,2.7394 2.38969,4.95424 5.30395,4.95424 2.91425,0 5.30394,-2.21484 5.30394,-4.95424"
         style="fill:none;stroke:#000000;stroke-width:1.51541388px;stroke-linecap:round;stroke-linejoin:round;stroke-opacity:1;stroke-dasharray:none"
         inkscape:connector-curvature="0" />
      <path
         id="path8829"
         d="m 391.70065,232.99855 74.02213,0"
         style="fill:none;stroke:#000000;stroke-width:1.51541388px;stroke-linecap:round;stroke-linejoin:round;stroke-opacity:1;stroke-dasharray:none"
         inkscape:connector-curvature="0" />
      <path
         id="path8831"
         d="m 391.70065,204.49711 0,58.11029"
         style="fill:none;stroke:#000000;stroke-width:1.51541388px;stroke-linecap:round;stroke-linejoin:round;stroke-opacity:1;stroke-dasharray:none"
         inkscape:connector-curvature="0" />
      <path
         id="path8833"
         d="m 391.70065,204.49711 14.105,0"
         style="fill:none;stroke:#000000;stroke-width:1.51541388px;stroke-linecap:round;stroke-linejoin:round;stroke-opacity:1;stroke-dasharray:none"
         inkscape:connector-curvature="0" />
      <path
         id="path8835"
         d="m 405.80565,193.88922 0,21.15751 35.26252,0 0,-21.15751 -35.26252,0 z"
         style="fill:#ffffff;fill-opacity:1;fill-rule:evenodd;stroke:none"
         inkscape:connector-curvature="0" />
      <path
         id="path8837"
         d="m 405.80565,215.04673 35.26252,0 0,-21.15751 -35.26252,0 0,21.15751 z"
         style="fill:none;stroke:#000000;stroke-width:1.51541388px;stroke-linecap:round;stroke-linejoin:round;stroke-opacity:1;stroke-dasharray:none"
         inkscape:connector-curvature="0" />
      <text
         id="text8839"
         style="font-size:14.92099762px;font-style:normal;font-weight:normal;text-align:start;text-anchor:start;fill:#000000;font-family:Arial"
         y="208.51878"
         x="414.7233"
         xml:space="preserve">Z</text>
      <text
         id="text8841"
         style="font-size:10.25818539px;font-style:normal;font-weight:normal;text-align:start;text-anchor:start;fill:#000000;font-family:Arial"
         y="204.78854"
         x="423.11633"
         xml:space="preserve">-</text>
      <text
         id="text8843"
         style="font-size:10.25818539px;font-style:normal;font-weight:normal;text-align:start;text-anchor:start;fill:#000000;font-family:Arial"
         y="204.78854"
         x="426.84659"
         xml:space="preserve">1</text>
      <path
         id="path8845"
         d="m 441.06817,204.49711 14.10501,0"
         style="fill:none;stroke:#000000;stroke-width:1.51541388px;stroke-linecap:round;stroke-linejoin:round;stroke-opacity:1;stroke-dasharray:none"
         inkscape:connector-curvature="0" />
      <path
         id="path8847"
         d="m 501.04358,216.79528 21.04094,0"
         style="fill:none;stroke:#000000;stroke-width:1.51541388px;stroke-linecap:round;stroke-linejoin:round;stroke-opacity:1;stroke-dasharray:none"
         inkscape:connector-curvature="0" />
      <path
         id="path8849"
         d="m 522.08452,186.83671 0,105.72926 35.26251,-28.15173 0,-49.36751 -35.26251,-28.21002 z"
         style="fill:#ffffff;fill-opacity:1;fill-rule:evenodd;stroke:none"
         inkscape:connector-curvature="0" />
      <path
         id="path8851"
         d="m 522.08452,186.83671 0,105.72926 35.26251,-28.15173 0,-49.36751 -35.26251,-28.21002 z"
         style="fill:none;stroke:#000000;stroke-width:1.51541388px;stroke-linecap:round;stroke-linejoin:round;stroke-opacity:1;stroke-dasharray:none"
         inkscape:connector-curvature="0" />
      <path
         id="path8853"
         d="m 536.18952,262.6074 c 0,-2.68111 -2.3314,-4.89594 -5.24566,-4.89594 -2.91425,0 -5.30394,2.21483 -5.30394,4.89594 0,2.73941 2.38969,4.95425 5.30394,4.95425 2.91426,0 5.24566,-2.21484 5.24566,-4.95425"
         style="fill:#ffffff;fill-opacity:1;fill-rule:evenodd;stroke:none"
         inkscape:connector-curvature="0" />
      <path
         id="path8855"
         d="m 536.18952,262.6074 c 0,-2.68111 -2.3314,-4.89594 -5.24566,-4.89594 -2.91425,0 -5.30394,2.21483 -5.30394,4.89594 0,2.73941 2.38969,4.95425 5.30394,4.95425 2.91426,0 5.24566,-2.21484 5.24566,-4.95425"
         style="fill:none;stroke:#000000;stroke-width:1.51541388px;stroke-linecap:round;stroke-linejoin:round;stroke-opacity:1;stroke-dasharray:none"
         inkscape:connector-curvature="0" />
      <path
         id="path8857"
         d="m 529.89473,211.19991 0,10.5496"
         style="fill:none;stroke:#000000;stroke-width:1.51541388px;stroke-linecap:round;stroke-linejoin:round;stroke-opacity:1;stroke-dasharray:none"
         inkscape:connector-curvature="0" />
      <path
         id="path8859"
         d="m 539.80321,311.97492 0,-33.57224"
         style="fill:none;stroke:#000000;stroke-width:1.51541388px;stroke-linecap:round;stroke-linejoin:round;stroke-opacity:1;stroke-dasharray:none"
         inkscape:connector-curvature="0" />
      <path
         id="path8861"
         d="m 463.97423,311.97492 75.82898,0"
         style="fill:none;stroke:#000000;stroke-width:1.51541388px;stroke-linecap:round;stroke-linejoin:round;stroke-opacity:1;stroke-dasharray:none"
         inkscape:connector-curvature="0" />
      <text
         id="text8863"
         style="font-size:14.92099762px;font-style:normal;font-weight:normal;text-align:start;text-anchor:start;fill:#000000;font-family:Arial"
         y="307.37039"
         x="470.677"
         xml:space="preserve">edge</text>
      <path
         id="path8865"
         d="m 557.34703,241.50818 52.86463,0"
         style="fill:none;stroke:#000000;stroke-width:1.51541388px;stroke-linecap:round;stroke-linejoin:round;stroke-opacity:1;stroke-dasharray:none"
         inkscape:connector-curvature="0" />
      <path
         id="path8867"
         d="m 465.83935,244.13101 0,-54.61318 c 20.10838,0 36.42822,12.1816 36.42822,27.27745 0,15.09585 -16.31984,27.33573 -36.42822,27.33573 0,0 0,0 0,0 z"
         style="fill:#ffffff;fill-opacity:1;fill-rule:evenodd;stroke:none"
         inkscape:connector-curvature="0" />
      <path
         id="path8869"
         d="m 465.83935,244.13101 0,-54.61318 c 20.10838,0 36.42822,12.1816 36.42822,27.27745 0,15.09585 -16.31984,27.33573 -36.42822,27.33573 0,0 0,0 0,0 z"
         style="fill:none;stroke:#000000;stroke-width:1.51541388px;stroke-linecap:round;stroke-linejoin:round;stroke-opacity:1;stroke-dasharray:none"
         inkscape:connector-curvature="0" />
      <path
         id="path8871"
         d="m 465.72278,204.49711 c 0,-2.7394 -2.38969,-4.95423 -5.30394,-4.95423 -2.91426,0 -5.30396,2.21483 -5.30396,4.95423 0,2.68112 2.3897,4.89596 5.30396,4.89596 2.91425,0 5.30394,-2.21484 5.30394,-4.89596"
         style="fill:#ffffff;fill-opacity:1;fill-rule:evenodd;stroke:none"
         inkscape:connector-curvature="0" />
      <path
         id="path8873"
         d="m 465.72278,204.49711 c 0,-2.7394 -2.38969,-4.95423 -5.30394,-4.95423 -2.91426,0 -5.30396,2.21483 -5.30396,4.95423 0,2.68112 2.3897,4.89596 5.30396,4.89596 2.91425,0 5.30394,-2.21484 5.30394,-4.89596"
         style="fill:none;stroke:#000000;stroke-width:1.51541388px;stroke-linecap:round;stroke-linejoin:round;stroke-opacity:1;stroke-dasharray:none"
         inkscape:connector-curvature="0" />
      <text
         id="text8875"
         style="font-size:14.92099762px;font-style:normal;font-weight:normal;text-align:start;text-anchor:start;fill:#000000;font-family:Arial"
         y="162.82323"
         x="328.92755"
         xml:space="preserve">trigger </text>
      <text
         id="text8877"
         style="font-size:14.92099762px;font-style:normal;font-weight:normal;text-align:start;text-anchor:start;fill:#000000;font-family:Arial"
         y="162.82323"
         x="375.55566"
         xml:space="preserve">1</text>
      <path
         id="path8879"
         d="m 81.507093,431.80919 112.840047,0"
         style="fill:none;stroke:#000000;stroke-width:1.51541388px;stroke-linecap:round;stroke-linejoin:round;stroke-opacity:1;stroke-dasharray:none"
         inkscape:connector-curvature="0" />
      <text
         id="text8881"
         style="font-size:14.92099762px;font-style:normal;font-weight:normal;text-align:start;text-anchor:start;fill:#000000;font-family:Arial"
         y="464.04086"
         x="264.58075"
         xml:space="preserve">rising</text>
      <path
         id="path8883"
         d="m 314.12311,482.92526 c 27.27745,0 49.36753,-11.83188 49.36753,-26.40317 0,-14.62957 -22.09008,-26.46145 -49.30924,-26.46145 0,0 0,0 -0.0583,0 13.63873,10.9576 16.43642,31.64883 6.17823,46.2784 -1.74855,2.50626 -3.78854,4.7211 -6.17823,6.58622"
         style="fill:#ffffff;fill-opacity:1;fill-rule:evenodd;stroke:none"
         inkscape:connector-curvature="0" />
      <path
         id="path8885"
         d="m 314.12311,482.92526 c 27.27745,0 49.36753,-11.83188 49.36753,-26.40317 0,-14.62957 -22.09008,-26.46145 -49.30924,-26.46145 0,0 0,0 -0.0583,0 13.63873,10.9576 16.43642,31.64883 6.17823,46.2784 -1.74855,2.50626 -3.78854,4.7211 -6.17823,6.58622"
         style="fill:none;stroke:#000000;stroke-width:1.51541388px;stroke-linecap:round;stroke-linejoin:round;stroke-opacity:1;stroke-dasharray:none"
         inkscape:connector-curvature="0" />
      <path
         id="path8887"
         d="m 303.5735,430.06064 c 13.69702,7.11078 19.40896,24.7129 12.70617,39.28419 -2.68112,5.94508 -7.16908,10.72446 -12.70617,13.58043"
         style="fill:none;stroke:#000000;stroke-width:1.51541388px;stroke-linecap:round;stroke-linejoin:round;stroke-opacity:1;stroke-dasharray:none"
         inkscape:connector-curvature="0" />
      <path
         id="path8889"
         d="m 261.31678,468.82026 50.35836,0"
         style="fill:none;stroke:#000000;stroke-width:1.51541388px;stroke-linecap:round;stroke-linejoin:round;stroke-opacity:1;stroke-dasharray:none"
         inkscape:connector-curvature="0" />
      <path
         id="path8891"
         d="m 240.15927,444.16564 75.77068,0"
         style="fill:none;stroke:#000000;stroke-width:1.51541388px;stroke-linecap:round;stroke-linejoin:round;stroke-opacity:1;stroke-dasharray:none"
         inkscape:connector-curvature="0" />
      <path
         id="path8893"
         d="m 363.49064,456.46381 158.59388,0"
         style="fill:none;stroke:#000000;stroke-width:1.51541388px;stroke-linecap:round;stroke-linejoin:round;stroke-opacity:1;stroke-dasharray:none"
         inkscape:connector-curvature="0" />
      <path
         id="path8895"
         d="m 116.76961,456.46381 77.57753,0"
         style="fill:none;stroke:#000000;stroke-width:1.51541388px;stroke-linecap:round;stroke-linejoin:round;stroke-opacity:1;stroke-dasharray:none"
         inkscape:connector-curvature="0" />
      <text
         id="text8897"
         style="font-size:14.92099762px;font-style:normal;font-weight:normal;text-align:start;text-anchor:start;fill:#000000;font-family:Arial"
         y="451.91757"
         x="126.56152"
         xml:space="preserve">threshold</text>
      <path
         id="path8899"
         d="m 194.34714,471.61794 0,-54.96289 45.81213,27.51059 -45.81213,27.4523 z"
         style="fill:#ffffff;fill-opacity:1;fill-rule:evenodd;stroke:none"
         inkscape:connector-curvature="0" />
      <path
         id="path8901"
         d="m 194.34714,471.61794 0,-54.96289 45.81213,27.51059 -45.81213,27.4523 z"
         style="fill:none;stroke:#000000;stroke-width:1.51541388px;stroke-linecap:round;stroke-linejoin:round;stroke-opacity:1;stroke-dasharray:none"
         inkscape:connector-curvature="0" />
      <path
         id="path8903"
         d="m 197.84425,431.80919 7.0525,0"
         style="fill:none;stroke:#000000;stroke-width:1.51541388px;stroke-linecap:round;stroke-linejoin:round;stroke-opacity:1;stroke-dasharray:none"
         inkscape:connector-curvature="0" />
      <path
         id="path8905"
         d="m 201.39965,428.31208 0,7.0525"
         style="fill:none;stroke:#000000;stroke-width:1.51541388px;stroke-linecap:round;stroke-linejoin:round;stroke-opacity:1;stroke-dasharray:none"
         inkscape:connector-curvature="0" />
      <path
         id="path8907"
         d="m 197.84425,456.46381 7.0525,0"
         style="fill:none;stroke:#000000;stroke-width:1.51541388px;stroke-linecap:round;stroke-linejoin:round;stroke-opacity:1;stroke-dasharray:none"
         inkscape:connector-curvature="0" />
      <path
         id="path8909"
         d="m 315.23053,468.82026 c 0,-2.7394 -2.38969,-4.95424 -5.30394,-4.95424 -2.91426,0 -5.30395,2.21484 -5.30395,4.95424 0,2.7394 2.38969,4.95423 5.30395,4.95423 2.91425,0 5.30394,-2.21483 5.30394,-4.95423"
         style="fill:#ffffff;fill-opacity:1;fill-rule:evenodd;stroke:none"
         inkscape:connector-curvature="0" />
      <path
         id="path8911"
         d="m 315.23053,468.82026 c 0,-2.7394 -2.38969,-4.95424 -5.30394,-4.95424 -2.91426,0 -5.30395,2.21484 -5.30395,4.95424 0,2.7394 2.38969,4.95423 5.30395,4.95423 2.91425,0 5.30394,-2.21483 5.30394,-4.95423"
         style="fill:none;stroke:#000000;stroke-width:1.51541388px;stroke-linecap:round;stroke-linejoin:round;stroke-opacity:1;stroke-dasharray:none"
         inkscape:connector-curvature="0" />
      <path
         id="path8913"
         d="m 391.70065,426.85495 74.02213,0"
         style="fill:none;stroke:#000000;stroke-width:1.51541388px;stroke-linecap:round;stroke-linejoin:round;stroke-opacity:1;stroke-dasharray:none"
         inkscape:connector-curvature="0" />
      <path
         id="path8915"
         d="m 391.70065,398.35351 0,58.1103"
         style="fill:none;stroke:#000000;stroke-width:1.51541388px;stroke-linecap:round;stroke-linejoin:round;stroke-opacity:1;stroke-dasharray:none"
         inkscape:connector-curvature="0" />
      <path
         id="path8917"
         d="m 391.70065,398.35351 14.105,0"
         style="fill:none;stroke:#000000;stroke-width:1.51541388px;stroke-linecap:round;stroke-linejoin:round;stroke-opacity:1;stroke-dasharray:none"
         inkscape:connector-curvature="0" />
      <path
         id="path8919"
         d="m 405.80565,387.74562 0,21.15751 35.26252,0 0,-21.15751 -35.26252,0 z"
         style="fill:#ffffff;fill-opacity:1;fill-rule:evenodd;stroke:none"
         inkscape:connector-curvature="0" />
      <path
         id="path8921"
         d="m 405.80565,408.90313 35.26252,0 0,-21.15751 -35.26252,0 0,21.15751 z"
         style="fill:none;stroke:#000000;stroke-width:1.51541388px;stroke-linecap:round;stroke-linejoin:round;stroke-opacity:1;stroke-dasharray:none"
         inkscape:connector-curvature="0" />
      <text
         id="text8923"
         style="font-size:14.92099762px;font-style:normal;font-weight:normal;text-align:start;text-anchor:start;fill:#000000;font-family:Arial"
         y="402.49176"
         x="414.7233"
         xml:space="preserve">Z</text>
      <text
         id="text8925"
         style="font-size:10.25818539px;font-style:normal;font-weight:normal;text-align:start;text-anchor:start;fill:#000000;font-family:Arial"
         y="398.76151"
         x="423.11633"
         xml:space="preserve">-</text>
      <text
         id="text8927"
         style="font-size:10.25818539px;font-style:normal;font-weight:normal;text-align:start;text-anchor:start;fill:#000000;font-family:Arial"
         y="398.76151"
         x="426.84659"
         xml:space="preserve">1</text>
      <path
         id="path8929"
         d="m 441.06817,398.35351 14.10501,0"
         style="fill:none;stroke:#000000;stroke-width:1.51541388px;stroke-linecap:round;stroke-linejoin:round;stroke-opacity:1;stroke-dasharray:none"
         inkscape:connector-curvature="0" />
      <path
         id="path8931"
         d="m 501.04358,410.65168 21.04094,0"
         style="fill:none;stroke:#000000;stroke-width:1.51541388px;stroke-linecap:round;stroke-linejoin:round;stroke-opacity:1;stroke-dasharray:none"
         inkscape:connector-curvature="0" />
      <path
         id="path8933"
         d="m 522.08452,380.69311 0,105.72926 35.26251,-28.15173 0,-49.36751 -35.26251,-28.21002 z"
         style="fill:#ffffff;fill-opacity:1;fill-rule:evenodd;stroke:none"
         inkscape:connector-curvature="0" />
      <path
         id="path8935"
         d="m 522.08452,380.69311 0,105.72926 35.26251,-28.15173 0,-49.36751 -35.26251,-28.21002 z"
         style="fill:none;stroke:#000000;stroke-width:1.51541388px;stroke-linecap:round;stroke-linejoin:round;stroke-opacity:1;stroke-dasharray:none"
         inkscape:connector-curvature="0" />
      <path
         id="path8937"
         d="m 536.18952,456.46381 c 0,-2.68112 -2.3314,-4.89595 -5.24566,-4.89595 -2.91425,0 -5.30394,2.21483 -5.30394,4.89595 0,2.73939 2.38969,4.95424 5.30394,4.95424 2.91426,0 5.24566,-2.21485 5.24566,-4.95424"
         style="fill:#ffffff;fill-opacity:1;fill-rule:evenodd;stroke:none"
         inkscape:connector-curvature="0" />
      <path
         id="path8939"
         d="m 536.18952,456.46381 c 0,-2.68112 -2.3314,-4.89595 -5.24566,-4.89595 -2.91425,0 -5.30394,2.21483 -5.30394,4.89595 0,2.73939 2.38969,4.95424 5.30394,4.95424 2.91426,0 5.24566,-2.21485 5.24566,-4.95424"
         style="fill:none;stroke:#000000;stroke-width:1.51541388px;stroke-linecap:round;stroke-linejoin:round;stroke-opacity:1;stroke-dasharray:none"
         inkscape:connector-curvature="0" />
      <path
         id="path8941"
         d="m 529.89473,404.99802 0,10.6079"
         style="fill:none;stroke:#000000;stroke-width:1.51541388px;stroke-linecap:round;stroke-linejoin:round;stroke-opacity:1;stroke-dasharray:none"
         inkscape:connector-curvature="0" />
      <path
         id="path8943"
         d="m 539.80321,505.83132 0,-33.57224"
         style="fill:none;stroke:#000000;stroke-width:1.51541388px;stroke-linecap:round;stroke-linejoin:round;stroke-opacity:1;stroke-dasharray:none"
         inkscape:connector-curvature="0" />
      <path
         id="path8945"
         d="m 463.97423,505.83132 75.82898,0"
         style="fill:none;stroke:#000000;stroke-width:1.51541388px;stroke-linecap:round;stroke-linejoin:round;stroke-opacity:1;stroke-dasharray:none"
         inkscape:connector-curvature="0" />
      <text
         id="text8947"
         style="font-size:14.92099762px;font-style:normal;font-weight:normal;text-align:start;text-anchor:start;fill:#000000;font-family:Arial"
         y="501.34338"
         x="470.677"
         xml:space="preserve">edge</text>
      <path
         id="path8949"
         d="m 557.34703,435.36458 52.86463,0"
         style="fill:none;stroke:#000000;stroke-width:1.51541388px;stroke-linecap:round;stroke-linejoin:round;stroke-opacity:1;stroke-dasharray:none"
         inkscape:connector-curvature="0" />
      <path
         id="path8951"
         d="m 465.83935,437.98741 0,-54.61318 c 20.10838,0 36.42822,12.18159 36.42822,27.27745 0,15.09586 -16.31984,27.33573 -36.42822,27.33573 0,0 0,0 0,0 z"
         style="fill:#ffffff;fill-opacity:1;fill-rule:evenodd;stroke:none"
         inkscape:connector-curvature="0" />
      <path
         id="path8953"
         d="m 465.83935,437.98741 0,-54.61318 c 20.10838,0 36.42822,12.18159 36.42822,27.27745 0,15.09586 -16.31984,27.33573 -36.42822,27.33573 0,0 0,0 0,0 z"
         style="fill:none;stroke:#000000;stroke-width:1.51541388px;stroke-linecap:round;stroke-linejoin:round;stroke-opacity:1;stroke-dasharray:none"
         inkscape:connector-curvature="0" />
      <path
         id="path8955"
         d="m 465.72278,398.35351 c 0,-2.7394 -2.38969,-4.95424 -5.30394,-4.95424 -2.91426,0 -5.30396,2.21484 -5.30396,4.95424 0,2.68112 2.3897,4.89595 5.30396,4.89595 2.91425,0 5.30394,-2.21483 5.30394,-4.89595"
         style="fill:#ffffff;fill-opacity:1;fill-rule:evenodd;stroke:none"
         inkscape:connector-curvature="0" />
      <path
         id="path8957"
         d="m 465.72278,398.35351 c 0,-2.7394 -2.38969,-4.95424 -5.30394,-4.95424 -2.91426,0 -5.30396,2.21484 -5.30396,4.95424 0,2.68112 2.3897,4.89595 5.30396,4.89595 2.91425,0 5.30394,-2.21483 5.30394,-4.89595"
         style="fill:none;stroke:#000000;stroke-width:1.51541388px;stroke-linecap:round;stroke-linejoin:round;stroke-opacity:1;stroke-dasharray:none"
         inkscape:connector-curvature="0" />
      <text
         id="text8959"
         style="font-size:14.92099762px;font-style:normal;font-weight:normal;text-align:start;text-anchor:start;fill:#000000;font-family:Arial"
         y="356.7962"
         x="328.92755"
         xml:space="preserve">trigger </text>
      <text
         id="text8961"
         style="font-size:14.92099762px;font-style:normal;font-weight:normal;text-align:start;text-anchor:start;fill:#000000;font-family:Arial"
         y="356.7962"
         x="375.55566"
         xml:space="preserve">2</text>
      <path
         id="path8963"
         d="m 81.507093,237.95279 0,193.8564"
         style="fill:none;stroke:#000000;stroke-width:1.51541388px;stroke-linecap:round;stroke-linejoin:round;stroke-opacity:1;stroke-dasharray:none"
         inkscape:connector-curvature="0" />
      <path
         id="path8965"
         d="m 393.74063,262.6074 c 0,-1.04913 -0.93256,-1.92341 -2.09827,-1.92341 -1.10742,0 -2.03998,0.87428 -2.03998,1.92341 0,1.10742 0.93256,1.9817 2.03998,1.9817 1.16571,0 2.09827,-0.87428 2.09827,-1.9817"
         style="fill:#000000;fill-opacity:1;fill-rule:evenodd;stroke:none"
         inkscape:connector-curvature="0" />
      <path
         id="path8967"
         d="m 393.74063,262.6074 c 0,-1.04913 -0.93256,-1.92341 -2.09827,-1.92341 -1.10742,0 -2.03998,0.87428 -2.03998,1.92341 0,1.10742 0.93256,1.9817 2.03998,1.9817 1.16571,0 2.09827,-0.87428 2.09827,-1.9817"
         style="fill:none;stroke:#000000;stroke-width:1.51541388px;stroke-linecap:round;stroke-linejoin:round;stroke-opacity:1;stroke-dasharray:none"
         inkscape:connector-curvature="0" />
      <path
         id="path8969"
         d="m 393.74063,232.99855 c 0,-1.04913 -0.93256,-1.92341 -2.09827,-1.92341 -1.10742,0 -2.03998,0.87428 -2.03998,1.92341 0,1.10742 0.93256,1.9817 2.03998,1.9817 1.16571,0 2.09827,-0.87428 2.09827,-1.9817"
         style="fill:#000000;fill-opacity:1;fill-rule:evenodd;stroke:none"
         inkscape:connector-curvature="0" />
      <path
         id="path8971"
         d="m 393.74063,232.99855 c 0,-1.04913 -0.93256,-1.92341 -2.09827,-1.92341 -1.10742,0 -2.03998,0.87428 -2.03998,1.92341 0,1.10742 0.93256,1.9817 2.03998,1.9817 1.16571,0 2.09827,-0.87428 2.09827,-1.9817"
         style="fill:none;stroke:#000000;stroke-width:1.51541388px;stroke-linecap:round;stroke-linejoin:round;stroke-opacity:1;stroke-dasharray:none"
         inkscape:connector-curvature="0" />
      <path
         id="path8973"
         d="m 83.60536,237.95279 c 0,-1.04913 -0.932562,-1.92341 -2.098267,-1.92341 -1.107413,0 -2.039975,0.87428 -2.039975,1.92341 0,1.04913 0.932562,1.92341 2.039975,1.92341 1.165705,0 2.098267,-0.87428 2.098267,-1.92341"
         style="fill:#000000;fill-opacity:1;fill-rule:evenodd;stroke:none"
         inkscape:connector-curvature="0" />
      <path
         id="path8975"
         d="m 83.60536,237.95279 c 0,-1.04913 -0.932562,-1.92341 -2.098267,-1.92341 -1.107413,0 -2.039975,0.87428 -2.039975,1.92341 0,1.04913 0.932562,1.92341 2.039975,1.92341 1.165705,0 2.098267,-0.87428 2.098267,-1.92341"
         style="fill:none;stroke:#000000;stroke-width:1.51541388px;stroke-linecap:round;stroke-linejoin:round;stroke-opacity:1;stroke-dasharray:none"
         inkscape:connector-curvature="0" />
      <path
         id="path8977"
         d="m 393.79891,456.46381 c 0,-1.04914 -0.93256,-1.92342 -2.09826,-1.92342 -1.16571,0 -2.09827,0.87428 -2.09827,1.92342 0,1.10741 0.93256,1.98169 2.09827,1.98169 1.1657,0 2.09826,-0.87428 2.09826,-1.98169"
         style="fill:#000000;fill-opacity:1;fill-rule:evenodd;stroke:none"
         inkscape:connector-curvature="0" />
      <path
         id="path8979"
         d="m 393.79891,456.46381 c 0,-1.04914 -0.93256,-1.92342 -2.09826,-1.92342 -1.16571,0 -2.09827,0.87428 -2.09827,1.92342 0,1.10741 0.93256,1.98169 2.09827,1.98169 1.1657,0 2.09826,-0.87428 2.09826,-1.98169"
         style="fill:none;stroke:#000000;stroke-width:1.51541388px;stroke-linecap:round;stroke-linejoin:round;stroke-opacity:1;stroke-dasharray:none"
         inkscape:connector-curvature="0" />
      <path
         id="path8981"
         d="m 393.79891,426.85495 c 0,-1.04913 -0.93256,-1.92341 -2.09826,-1.92341 -1.16571,0 -2.09827,0.87428 -2.09827,1.92341 0,1.10742 0.93256,1.9817 2.09827,1.9817 1.1657,0 2.09826,-0.87428 2.09826,-1.9817"
         style="fill:#000000;fill-opacity:1;fill-rule:evenodd;stroke:none"
         inkscape:connector-curvature="0" />
      <path
         id="path8983"
         d="m 393.79891,426.85495 c 0,-1.04913 -0.93256,-1.92341 -2.09826,-1.92341 -1.16571,0 -2.09827,0.87428 -2.09827,1.92341 0,1.10742 0.93256,1.9817 2.09827,1.9817 1.1657,0 2.09826,-0.87428 2.09826,-1.9817"
         style="fill:none;stroke:#000000;stroke-width:1.51541388px;stroke-linecap:round;stroke-linejoin:round;stroke-opacity:1;stroke-dasharray:none"
         inkscape:connector-curvature="0" />
      <path
         id="path8985"
         d="m 99.633774,368.39495 0,13.98843 c 0,0.23314 -0.233142,0.46629 -0.466277,0.46629 -0.291426,0 -0.466285,-0.23315 -0.466285,-0.46629 l 0,-13.98843 c 0,-0.29143 0.174859,-0.46629 0.466285,-0.46629 0.233135,0 0.466277,0.17486 0.466277,0.46629 z m 0,22.3815 0,13.98843 c 0,0.23314 -0.233142,0.46628 -0.466277,0.46628 -0.291426,0 -0.466285,-0.23314 -0.466285,-0.46628 l 0,-13.98843 c 0,-0.29143 0.174859,-0.46629 0.466285,-0.46629 0.233135,0 0.466277,0.17486 0.466277,0.46629 z m 0,22.38149 0,13.98844 c 0,0.23314 -0.233142,0.46628 -0.466277,0.46628 -0.291426,0 -0.466285,-0.23314 -0.466285,-0.46628 l 0,-13.98844 c 0,-0.29142 0.174859,-0.46628 0.466285,-0.46628 0.233135,0 0.466277,0.17486 0.466277,0.46628 z m 0,22.38149 0,13.98844 c 0,0.23315 -0.233142,0.46629 -0.466277,0.46629 -0.291426,0 -0.466285,-0.23314 -0.466285,-0.46629 l 0,-13.98844 c 0,-0.29141 0.174859,-0.46627 0.466285,-0.46627 0.233135,0 0.466277,0.17486 0.466277,0.46627 z m 0,22.3815 0,13.98844 c 0,0.23314 -0.233142,0.46628 -0.466277,0.46628 -0.291426,0 -0.466285,-0.23314 -0.466285,-0.46628 l 0,-13.98844 c 0,-0.29142 0.174859,-0.46628 0.466285,-0.46628 0.233135,0 0.466277,0.17486 0.466277,0.46628 z m 0,22.3815 0,13.98844 c 0,0.23313 -0.233142,0.46628 -0.466277,0.46628 -0.291426,0 -0.466285,-0.23315 -0.466285,-0.46628 l 0,-13.98844 c 0,-0.29143 0.174859,-0.46628 0.466285,-0.46628 0.233135,0 0.466277,0.17485 0.466277,0.46628 z m 0,22.3815 0,13.98844 c 0,0.23313 -0.233142,0.46627 -0.466277,0.46627 -0.291426,0 -0.466285,-0.23314 -0.466285,-0.46627 l 0,-13.98844 c 0,-0.29143 0.174859,-0.46628 0.466285,-0.46628 0.233135,0 0.466277,0.17485 0.466277,0.46628 z"
         style="fill:#944266;fill-opacity:1;fill-rule:nonzero;stroke:#944266;stroke-width:0.93256235px;stroke-linecap:butt;stroke-linejoin:bevel;stroke-opacity:1;stroke-dasharray:none"
         inkscape:connector-curvature="0" />
      <path
         id="path8987"
         d="m 99.167497,519.47005 13.988433,0 c 0.23314,0 0.46628,0.17485 0.46628,0.46628 0,0.23314 -0.23314,0.46628 -0.46628,0.46628 l -13.988433,0 c -0.291426,0 -0.466285,-0.23314 -0.466285,-0.46628 0,-0.29143 0.174859,-0.46628 0.466285,-0.46628 z m 22.381493,0 13.98844,0 c 0.23314,0 0.46628,0.17485 0.46628,0.46628 0,0.23314 -0.23314,0.46628 -0.46628,0.46628 l -13.98844,0 c -0.29142,0 -0.46628,-0.23314 -0.46628,-0.46628 0,-0.29143 0.17486,-0.46628 0.46628,-0.46628 z m 22.38149,0 13.98844,0 c 0.23315,0 0.46628,0.17485 0.46628,0.46628 0,0.23314 -0.23313,0.46628 -0.46628,0.46628 l -13.98844,0 c -0.29142,0 -0.46627,-0.23314 -0.46627,-0.46628 0,-0.29143 0.17485,-0.46628 0.46627,-0.46628 z m 22.3815,0 13.98844,0 c 0.23314,0 0.46628,0.17485 0.46628,0.46628 0,0.23314 -0.23314,0.46628 -0.46628,0.46628 l -13.98844,0 c -0.29142,0 -0.46628,-0.23314 -0.46628,-0.46628 0,-0.29143 0.17486,-0.46628 0.46628,-0.46628 z m 22.3815,0 13.98844,0 c 0.23313,0 0.46628,0.17485 0.46628,0.46628 0,0.23314 -0.23315,0.46628 -0.46628,0.46628 l -13.98844,0 c -0.29143,0 -0.46628,-0.23314 -0.46628,-0.46628 0,-0.29143 0.17485,-0.46628 0.46628,-0.46628 z m 22.3815,0 13.98844,0 c 0.23313,0 0.46627,0.17485 0.46627,0.46628 0,0.23314 -0.23314,0.46628 -0.46627,0.46628 l -13.98844,0 c -0.29143,0 -0.46628,-0.23314 -0.46628,-0.46628 0,-0.29143 0.17485,-0.46628 0.46628,-0.46628 z m 22.38149,0 13.98844,0 c 0.23314,0 0.46628,0.17485 0.46628,0.46628 0,0.23314 -0.23314,0.46628 -0.46628,0.46628 l -13.98844,0 c -0.29142,0 -0.46628,-0.23314 -0.46628,-0.46628 0,-0.29143 0.17486,-0.46628 0.46628,-0.46628 z m 22.3815,0 13.98843,0 c 0.23315,0 0.46629,0.17485 0.46629,0.46628 0,0.23314 -0.23314,0.46628 -0.46629,0.46628 l -13.98843,0 c -0.29142,0 -0.46628,-0.23314 -0.46628,-0.46628 0,-0.29143 0.17486,-0.46628 0.46628,-0.46628 z m 22.3815,0 13.98843,0 c 0.23314,0 0.46629,0.17485 0.46629,0.46628 0,0.23314 -0.23315,0.46628 -0.46629,0.46628 l -13.98843,0 c -0.29143,0 -0.46629,-0.23314 -0.46629,-0.46628 0,-0.29143 0.17486,-0.46628 0.46629,-0.46628 z m 22.38149,0 13.98844,0 c 0.23314,0 0.46628,0.17485 0.46628,0.46628 0,0.23314 -0.23314,0.46628 -0.46628,0.46628 l -13.98844,0 c -0.29142,0 -0.46628,-0.23314 -0.46628,-0.46628 0,-0.29143 0.17486,-0.46628 0.46628,-0.46628 z m 22.3815,0 13.98844,0 c 0.23314,0 0.46627,0.17485 0.46627,0.46628 0,0.23314 -0.23313,0.46628 -0.46627,0.46628 l -13.98844,0 c -0.29143,0 -0.46628,-0.23314 -0.46628,-0.46628 0,-0.29143 0.17485,-0.46628 0.46628,-0.46628 z m 22.38149,0 13.98844,0 c 0.23314,0 0.46628,0.17485 0.46628,0.46628 0,0.23314 -0.23314,0.46628 -0.46628,0.46628 l -13.98844,0 c -0.29142,0 -0.46627,-0.23314 -0.46627,-0.46628 0,-0.29143 0.17485,-0.46628 0.46627,-0.46628 z m 22.3815,0 13.98844,0 c 0.23314,0 0.46628,0.17485 0.46628,0.46628 0,0.23314 -0.23314,0.46628 -0.46628,0.46628 l -13.98844,0 c -0.29142,0 -0.46628,-0.23314 -0.46628,-0.46628 0,-0.29143 0.17486,-0.46628 0.46628,-0.46628 z m 22.3815,0 13.98843,0 c 0.23314,0 0.46629,0.17485 0.46629,0.46628 0,0.23314 -0.23315,0.46628 -0.46629,0.46628 l -13.98843,0 c -0.29143,0 -0.46629,-0.23314 -0.46629,-0.46628 0,-0.29143 0.17486,-0.46628 0.46629,-0.46628 z m 22.3815,0 13.98843,0 c 0.23314,0 0.46628,0.17485 0.46628,0.46628 0,0.23314 -0.23314,0.46628 -0.46628,0.46628 l -13.98843,0 c -0.29143,0 -0.46629,-0.23314 -0.46629,-0.46628 0,-0.29143 0.17486,-0.46628 0.46629,-0.46628 z m 22.38149,0 13.98844,0 c 0.23314,0 0.46628,0.17485 0.46628,0.46628 0,0.23314 -0.23314,0.46628 -0.46628,0.46628 l -13.98844,0 c -0.29142,0 -0.46628,-0.23314 -0.46628,-0.46628 0,-0.29143 0.17486,-0.46628 0.46628,-0.46628 z m 22.38149,0 13.98844,0 c 0.23315,0 0.46629,0.17485 0.46629,0.46628 0,0.23314 -0.23314,0.46628 -0.46629,0.46628 l -13.98844,0 c -0.29141,0 -0.46627,-0.23314 -0.46627,-0.46628 0,-0.29143 0.17486,-0.46628 0.46627,-0.46628 z m 22.3815,0 13.98844,0 c 0.23314,0 0.46628,0.17485 0.46628,0.46628 0,0.23314 -0.23314,0.46628 -0.46628,0.46628 l -13.98844,0 c -0.29142,0 -0.46627,-0.23314 -0.46627,-0.46628 0,-0.29143 0.17485,-0.46628 0.46627,-0.46628 z m 22.3815,0 13.98844,0 c 0.23314,0 0.46628,0.17485 0.46628,0.46628 0,0.23314 -0.23314,0.46628 -0.46628,0.46628 l -13.98844,0 c -0.29143,0 -0.46628,-0.23314 -0.46628,-0.46628 0,-0.29143 0.17485,-0.46628 0.46628,-0.46628 z m 22.3815,0 13.98844,0 c 0.23313,0 0.46627,0.17485 0.46627,0.46628 0,0.23314 -0.23314,0.46628 -0.46627,0.46628 l -13.98844,0 c -0.29143,0 -0.46628,-0.23314 -0.46628,-0.46628 0,-0.29143 0.17485,-0.46628 0.46628,-0.46628 z m 22.38149,0 13.98844,0 c 0.23314,0 0.46628,0.17485 0.46628,0.46628 0,0.23314 -0.23314,0.46628 -0.46628,0.46628 l -13.98844,0 c -0.29142,0 -0.46628,-0.23314 -0.46628,-0.46628 0,-0.29143 0.17486,-0.46628 0.46628,-0.46628 z m 22.3815,0 12.88102,0 c 0.23314,0 0.46628,0.17485 0.46628,0.46628 0,0.23314 -0.23314,0.46628 -0.46628,0.46628 l -12.88102,0 c -0.29142,0 -0.46628,-0.23314 -0.46628,-0.46628 0,-0.29143 0.17486,-0.46628 0.46628,-0.46628 z"
         style="fill:#944266;fill-opacity:1;fill-rule:nonzero;stroke:#944266;stroke-width:0.93256235px;stroke-linecap:butt;stroke-linejoin:bevel;stroke-opacity:1;stroke-dasharray:none"
         inkscape:connector-curvature="0" />
      <path
         id="path8989"
         d="m 581.59366,519.93633 0,-13.98843 c 0,-0.29143 0.17485,-0.46629 0.46628,-0.46629 0.23314,0 0.46628,0.17486 0.46628,0.46629 l 0,13.98843 c 0,0.23314 -0.23314,0.46628 -0.46628,0.46628 -0.29143,0 -0.46628,-0.23314 -0.46628,-0.46628 z m 0,-22.3815 0,-13.98843 c 0,-0.29143 0.17485,-0.46628 0.46628,-0.46628 0.23314,0 0.46628,0.17485 0.46628,0.46628 l 0,13.98843 c 0,0.23314 -0.23314,0.46629 -0.46628,0.46629 -0.29143,0 -0.46628,-0.23315 -0.46628,-0.46629 z m 0,-22.3815 0,-13.98843 c 0,-0.29142 0.17485,-0.46628 0.46628,-0.46628 0.23314,0 0.46628,0.17486 0.46628,0.46628 l 0,13.98843 c 0,0.23315 -0.23314,0.46629 -0.46628,0.46629 -0.29143,0 -0.46628,-0.23314 -0.46628,-0.46629 z m 0,-22.38149 0,-13.98843 c 0,-0.29143 0.17485,-0.46628 0.46628,-0.46628 0.23314,0 0.46628,0.17485 0.46628,0.46628 l 0,13.98843 c 0,0.23314 -0.23314,0.46628 -0.46628,0.46628 -0.29143,0 -0.46628,-0.23314 -0.46628,-0.46628 z m 0,-22.38149 0,-13.98844 c 0,-0.29143 0.17485,-0.46628 0.46628,-0.46628 0.23314,0 0.46628,0.17485 0.46628,0.46628 l 0,13.98844 c 0,0.23314 -0.23314,0.46627 -0.46628,0.46627 -0.29143,0 -0.46628,-0.23313 -0.46628,-0.46627 z m 0,-22.3815 0,-13.98844 c 0,-0.29143 0.17485,-0.46628 0.46628,-0.46628 0.23314,0 0.46628,0.17485 0.46628,0.46628 l 0,13.98844 c 0,0.23314 -0.23314,0.46628 -0.46628,0.46628 -0.29143,0 -0.46628,-0.23314 -0.46628,-0.46628 z m 0,-22.3815 0,-13.98844 c 0,-0.29142 0.17485,-0.46627 0.46628,-0.46627 0.23314,0 0.46628,0.17485 0.46628,0.46627 l 0,13.98844 c 0,0.23314 -0.23314,0.46629 -0.46628,0.46629 -0.29143,0 -0.46628,-0.23315 -0.46628,-0.46629 z"
         style="fill:#944266;fill-opacity:1;fill-rule:nonzero;stroke:#944266;stroke-width:0.93256235px;stroke-linecap:butt;stroke-linejoin:bevel;stroke-opacity:1;stroke-dasharray:none"
         inkscape:connector-curvature="0" />
      <path
         id="path8991"
         d="m 582.05994,368.86123 -13.98844,0 c -0.29142,0 -0.46628,-0.23314 -0.46628,-0.46628 0,-0.29143 0.17486,-0.46629 0.46628,-0.46629 l 13.98844,0 c 0.23314,0 0.46628,0.17486 0.46628,0.46629 0,0.23314 -0.23314,0.46628 -0.46628,0.46628 z m -22.3815,0 -13.98844,0 c -0.29142,0 -0.46627,-0.23314 -0.46627,-0.46628 0,-0.29143 0.17485,-0.46629 0.46627,-0.46629 l 13.98844,0 c 0.23315,0 0.46628,0.17486 0.46628,0.46629 0,0.23314 -0.23313,0.46628 -0.46628,0.46628 z m -22.38149,0 -13.98844,0 c -0.29142,0 -0.46628,-0.23314 -0.46628,-0.46628 0,-0.29143 0.17486,-0.46629 0.46628,-0.46629 l 13.98844,0 c 0.23314,0 0.46628,0.17486 0.46628,0.46629 0,0.23314 -0.23314,0.46628 -0.46628,0.46628 z m -22.3815,0 -13.98843,0 c -0.29143,0 -0.46629,-0.23314 -0.46629,-0.46628 0,-0.29143 0.17486,-0.46629 0.46629,-0.46629 l 13.98843,0 c 0.23314,0 0.46628,0.17486 0.46628,0.46629 0,0.23314 -0.23314,0.46628 -0.46628,0.46628 z m -22.3815,0 -13.98843,0 c -0.29143,0 -0.46629,-0.23314 -0.46629,-0.46628 0,-0.29143 0.17486,-0.46629 0.46629,-0.46629 l 13.98843,0 c 0.23314,0 0.46629,0.17486 0.46629,0.46629 0,0.23314 -0.23315,0.46628 -0.46629,0.46628 z m -22.3815,0 -13.98843,0 c -0.29142,0 -0.46628,-0.23314 -0.46628,-0.46628 0,-0.29143 0.17486,-0.46629 0.46628,-0.46629 l 13.98843,0 c 0.23315,0 0.46629,0.17486 0.46629,0.46629 0,0.23314 -0.23314,0.46628 -0.46629,0.46628 z m -22.38149,0 -13.98844,0 c -0.29142,0 -0.46627,-0.23314 -0.46627,-0.46628 0,-0.29143 0.17485,-0.46629 0.46627,-0.46629 l 13.98844,0 c 0.23314,0 0.46628,0.17486 0.46628,0.46629 0,0.23314 -0.23314,0.46628 -0.46628,0.46628 z m -22.38149,0 -13.98844,0 c -0.29143,0 -0.46628,-0.23314 -0.46628,-0.46628 0,-0.29143 0.17485,-0.46629 0.46628,-0.46629 l 13.98844,0 c 0.23313,0 0.46627,0.17486 0.46627,0.46629 0,0.23314 -0.23314,0.46628 -0.46627,0.46628 z m -22.3815,0 -13.98844,0 c -0.29143,0 -0.46628,-0.23314 -0.46628,-0.46628 0,-0.29143 0.17485,-0.46629 0.46628,-0.46629 l 13.98844,0 c 0.23314,0 0.46628,0.17486 0.46628,0.46629 0,0.23314 -0.23314,0.46628 -0.46628,0.46628 z m -22.3815,0 -13.98844,0 c -0.29142,0 -0.46628,-0.23314 -0.46628,-0.46628 0,-0.29143 0.17486,-0.46629 0.46628,-0.46629 l 13.98844,0 c 0.23314,0 0.46628,0.17486 0.46628,0.46629 0,0.23314 -0.23314,0.46628 -0.46628,0.46628 z m -22.3815,0 -13.98843,0 c -0.29142,0 -0.46628,-0.23314 -0.46628,-0.46628 0,-0.29143 0.17486,-0.46629 0.46628,-0.46629 l 13.98843,0 c 0.23315,0 0.46629,0.17486 0.46629,0.46629 0,0.23314 -0.23314,0.46628 -0.46629,0.46628 z m -22.38149,0 -13.98844,0 c -0.29142,0 -0.46628,-0.23314 -0.46628,-0.46628 0,-0.29143 0.17486,-0.46629 0.46628,-0.46629 l 13.98844,0 c 0.23314,0 0.46628,0.17486 0.46628,0.46629 0,0.23314 -0.23314,0.46628 -0.46628,0.46628 z m -22.3815,0 -13.98843,0 c -0.29143,0 -0.46629,-0.23314 -0.46629,-0.46628 0,-0.29143 0.17486,-0.46629 0.46629,-0.46629 l 13.98843,0 c 0.23314,0 0.46628,0.17486 0.46628,0.46629 0,0.23314 -0.23314,0.46628 -0.46628,0.46628 z m -22.38149,0 -13.98844,0 c -0.29143,0 -0.46629,-0.23314 -0.46629,-0.46628 0,-0.29143 0.17486,-0.46629 0.46629,-0.46629 l 13.98844,0 c 0.23313,0 0.46627,0.17486 0.46627,0.46629 0,0.23314 -0.23314,0.46628 -0.46627,0.46628 z m -22.3815,0 -13.98844,0 c -0.29142,0 -0.46628,-0.23314 -0.46628,-0.46628 0,-0.29143 0.17486,-0.46629 0.46628,-0.46629 l 13.98844,0 c 0.23313,0 0.46628,0.17486 0.46628,0.46629 0,0.23314 -0.23315,0.46628 -0.46628,0.46628 z m -22.3815,0 -13.98844,0 c -0.29142,0 -0.46627,-0.23314 -0.46627,-0.46628 0,-0.29143 0.17485,-0.46629 0.46627,-0.46629 l 13.98844,0 c 0.23314,0 0.46628,0.17486 0.46628,0.46629 0,0.23314 -0.23314,0.46628 -0.46628,0.46628 z m -22.3815,0 -13.98843,0 c -0.29143,0 -0.46628,-0.23314 -0.46628,-0.46628 0,-0.29143 0.17485,-0.46629 0.46628,-0.46629 l 13.98843,0 c 0.23315,0 0.46628,0.17486 0.46628,0.46629 0,0.23314 -0.23313,0.46628 -0.46628,0.46628 z m -22.38149,0 -13.98843,0 c -0.29143,0 -0.46629,-0.23314 -0.46629,-0.46628 0,-0.29143 0.17486,-0.46629 0.46629,-0.46629 l 13.98843,0 c 0.23314,0 0.46628,0.17486 0.46628,0.46629 0,0.23314 -0.23314,0.46628 -0.46628,0.46628 z m -22.3815,0 -13.98843,0 c -0.29143,0 -0.46629,-0.23314 -0.46629,-0.46628 0,-0.29143 0.17486,-0.46629 0.46629,-0.46629 l 13.98843,0 c 0.23314,0 0.46628,0.17486 0.46628,0.46629 0,0.23314 -0.23314,0.46628 -0.46628,0.46628 z m -22.3815,0 -13.98843,0 c -0.29143,0 -0.46628,-0.23314 -0.46628,-0.46628 0,-0.29143 0.17485,-0.46629 0.46628,-0.46629 l 13.98843,0 c 0.23314,0 0.46629,0.17486 0.46629,0.46629 0,0.23314 -0.23315,0.46628 -0.46629,0.46628 z m -22.38149,0 -13.98844,0 c -0.29142,0 -0.46628,-0.23314 -0.46628,-0.46628 0,-0.29143 0.17486,-0.46629 0.46628,-0.46629 l 13.98844,0 c 0.23314,0 0.46628,0.17486 0.46628,0.46629 0,0.23314 -0.23314,0.46628 -0.46628,0.46628 z m -22.3815,0 -12.881013,0 c -0.291426,0 -0.466285,-0.23314 -0.466285,-0.46628 0,-0.29143 0.174859,-0.46629 0.466285,-0.46629 l 12.881013,0 c 0.23314,0 0.46628,0.17486 0.46628,0.46629 0,0.23314 -0.23314,0.46628 -0.46628,0.46628 z"
         style="fill:#944266;fill-opacity:1;fill-rule:nonzero;stroke:#944266;stroke-width:0.93256235px;stroke-linecap:butt;stroke-linejoin:bevel;stroke-opacity:1;stroke-dasharray:none"
         inkscape:connector-curvature="0" />
      <path
         id="path8993"
         d="m 99.633774,174.53855 0,13.98843 c 0,0.23314 -0.233142,0.46629 -0.466277,0.46629 -0.291426,0 -0.466285,-0.23315 -0.466285,-0.46629 l 0,-13.98843 c 0,-0.29143 0.174859,-0.46628 0.466285,-0.46628 0.233135,0 0.466277,0.17485 0.466277,0.46628 z m 0,22.3815 0,13.98843 c 0,0.23314 -0.233142,0.46628 -0.466277,0.46628 -0.291426,0 -0.466285,-0.23314 -0.466285,-0.46628 l 0,-13.98843 c 0,-0.29143 0.174859,-0.46629 0.466285,-0.46629 0.233135,0 0.466277,0.17486 0.466277,0.46629 z m 0,22.38149 0,13.98844 c 0,0.23314 -0.233142,0.46628 -0.466277,0.46628 -0.291426,0 -0.466285,-0.23314 -0.466285,-0.46628 l 0,-13.98844 c 0,-0.29142 0.174859,-0.46628 0.466285,-0.46628 0.233135,0 0.466277,0.17486 0.466277,0.46628 z m 0,22.3815 0,13.98843 c 0,0.23315 -0.233142,0.46628 -0.466277,0.46628 -0.291426,0 -0.466285,-0.23313 -0.466285,-0.46628 l 0,-13.98843 c 0,-0.29143 0.174859,-0.46628 0.466285,-0.46628 0.233135,0 0.466277,0.17485 0.466277,0.46628 z m 0,22.38149 0,13.98844 c 0,0.23314 -0.233142,0.46628 -0.466277,0.46628 -0.291426,0 -0.466285,-0.23314 -0.466285,-0.46628 l 0,-13.98844 c 0,-0.29142 0.174859,-0.46627 0.466285,-0.46627 0.233135,0 0.466277,0.17485 0.466277,0.46627 z m 0,22.3815 0,13.98844 c 0,0.23313 -0.233142,0.46628 -0.466277,0.46628 -0.291426,0 -0.466285,-0.23315 -0.466285,-0.46628 l 0,-13.98844 c 0,-0.29143 0.174859,-0.46628 0.466285,-0.46628 0.233135,0 0.466277,0.17485 0.466277,0.46628 z m 0,22.3815 0,13.98843 c 0,0.23314 -0.233142,0.46628 -0.466277,0.46628 -0.291426,0 -0.466285,-0.23314 -0.466285,-0.46628 l 0,-13.98843 c 0,-0.29143 0.174859,-0.46629 0.466285,-0.46629 0.233135,0 0.466277,0.17486 0.466277,0.46629 z"
         style="fill:#944266;fill-opacity:1;fill-rule:nonzero;stroke:#944266;stroke-width:0.93256235px;stroke-linecap:butt;stroke-linejoin:bevel;stroke-opacity:1;stroke-dasharray:none"
         inkscape:connector-curvature="0" />
      <path
         id="path8995"
         d="m 99.167497,325.61365 13.988433,0 c 0.23314,0 0.46628,0.17485 0.46628,0.46628 0,0.23314 -0.23314,0.46629 -0.46628,0.46629 l -13.988433,0 c -0.291426,0 -0.466285,-0.23315 -0.466285,-0.46629 0,-0.29143 0.174859,-0.46628 0.466285,-0.46628 z m 22.381493,0 13.98844,0 c 0.23314,0 0.46628,0.17485 0.46628,0.46628 0,0.23314 -0.23314,0.46629 -0.46628,0.46629 l -13.98844,0 c -0.29142,0 -0.46628,-0.23315 -0.46628,-0.46629 0,-0.29143 0.17486,-0.46628 0.46628,-0.46628 z m 22.38149,0 13.98844,0 c 0.23315,0 0.46628,0.17485 0.46628,0.46628 0,0.23314 -0.23313,0.46629 -0.46628,0.46629 l -13.98844,0 c -0.29142,0 -0.46627,-0.23315 -0.46627,-0.46629 0,-0.29143 0.17485,-0.46628 0.46627,-0.46628 z m 22.3815,0 13.98844,0 c 0.23314,0 0.46628,0.17485 0.46628,0.46628 0,0.23314 -0.23314,0.46629 -0.46628,0.46629 l -13.98844,0 c -0.29142,0 -0.46628,-0.23315 -0.46628,-0.46629 0,-0.29143 0.17486,-0.46628 0.46628,-0.46628 z m 22.3815,0 13.98844,0 c 0.23313,0 0.46628,0.17485 0.46628,0.46628 0,0.23314 -0.23315,0.46629 -0.46628,0.46629 l -13.98844,0 c -0.29143,0 -0.46628,-0.23315 -0.46628,-0.46629 0,-0.29143 0.17485,-0.46628 0.46628,-0.46628 z m 22.3815,0 13.98844,0 c 0.23313,0 0.46627,0.17485 0.46627,0.46628 0,0.23314 -0.23314,0.46629 -0.46627,0.46629 l -13.98844,0 c -0.29143,0 -0.46628,-0.23315 -0.46628,-0.46629 0,-0.29143 0.17485,-0.46628 0.46628,-0.46628 z m 22.38149,0 13.98844,0 c 0.23314,0 0.46628,0.17485 0.46628,0.46628 0,0.23314 -0.23314,0.46629 -0.46628,0.46629 l -13.98844,0 c -0.29142,0 -0.46628,-0.23315 -0.46628,-0.46629 0,-0.29143 0.17486,-0.46628 0.46628,-0.46628 z m 22.3815,0 13.98843,0 c 0.23315,0 0.46629,0.17485 0.46629,0.46628 0,0.23314 -0.23314,0.46629 -0.46629,0.46629 l -13.98843,0 c -0.29142,0 -0.46628,-0.23315 -0.46628,-0.46629 0,-0.29143 0.17486,-0.46628 0.46628,-0.46628 z m 22.3815,0 13.98843,0 c 0.23314,0 0.46629,0.17485 0.46629,0.46628 0,0.23314 -0.23315,0.46629 -0.46629,0.46629 l -13.98843,0 c -0.29143,0 -0.46629,-0.23315 -0.46629,-0.46629 0,-0.29143 0.17486,-0.46628 0.46629,-0.46628 z m 22.38149,0 13.98844,0 c 0.23314,0 0.46628,0.17485 0.46628,0.46628 0,0.23314 -0.23314,0.46629 -0.46628,0.46629 l -13.98844,0 c -0.29142,0 -0.46628,-0.23315 -0.46628,-0.46629 0,-0.29143 0.17486,-0.46628 0.46628,-0.46628 z m 22.3815,0 13.98844,0 c 0.23314,0 0.46627,0.17485 0.46627,0.46628 0,0.23314 -0.23313,0.46629 -0.46627,0.46629 l -13.98844,0 c -0.29143,0 -0.46628,-0.23315 -0.46628,-0.46629 0,-0.29143 0.17485,-0.46628 0.46628,-0.46628 z m 22.38149,0 13.98844,0 c 0.23314,0 0.46628,0.17485 0.46628,0.46628 0,0.23314 -0.23314,0.46629 -0.46628,0.46629 l -13.98844,0 c -0.29142,0 -0.46627,-0.23315 -0.46627,-0.46629 0,-0.29143 0.17485,-0.46628 0.46627,-0.46628 z m 22.3815,0 13.98844,0 c 0.23314,0 0.46628,0.17485 0.46628,0.46628 0,0.23314 -0.23314,0.46629 -0.46628,0.46629 l -13.98844,0 c -0.29142,0 -0.46628,-0.23315 -0.46628,-0.46629 0,-0.29143 0.17486,-0.46628 0.46628,-0.46628 z m 22.3815,0 13.98843,0 c 0.23314,0 0.46629,0.17485 0.46629,0.46628 0,0.23314 -0.23315,0.46629 -0.46629,0.46629 l -13.98843,0 c -0.29143,0 -0.46629,-0.23315 -0.46629,-0.46629 0,-0.29143 0.17486,-0.46628 0.46629,-0.46628 z m 22.3815,0 13.98843,0 c 0.23314,0 0.46628,0.17485 0.46628,0.46628 0,0.23314 -0.23314,0.46629 -0.46628,0.46629 l -13.98843,0 c -0.29143,0 -0.46629,-0.23315 -0.46629,-0.46629 0,-0.29143 0.17486,-0.46628 0.46629,-0.46628 z m 22.38149,0 13.98844,0 c 0.23314,0 0.46628,0.17485 0.46628,0.46628 0,0.23314 -0.23314,0.46629 -0.46628,0.46629 l -13.98844,0 c -0.29142,0 -0.46628,-0.23315 -0.46628,-0.46629 0,-0.29143 0.17486,-0.46628 0.46628,-0.46628 z m 22.38149,0 13.98844,0 c 0.23315,0 0.46629,0.17485 0.46629,0.46628 0,0.23314 -0.23314,0.46629 -0.46629,0.46629 l -13.98844,0 c -0.29141,0 -0.46627,-0.23315 -0.46627,-0.46629 0,-0.29143 0.17486,-0.46628 0.46627,-0.46628 z m 22.3815,0 13.98844,0 c 0.23314,0 0.46628,0.17485 0.46628,0.46628 0,0.23314 -0.23314,0.46629 -0.46628,0.46629 l -13.98844,0 c -0.29142,0 -0.46627,-0.23315 -0.46627,-0.46629 0,-0.29143 0.17485,-0.46628 0.46627,-0.46628 z m 22.3815,0 13.98844,0 c 0.23314,0 0.46628,0.17485 0.46628,0.46628 0,0.23314 -0.23314,0.46629 -0.46628,0.46629 l -13.98844,0 c -0.29143,0 -0.46628,-0.23315 -0.46628,-0.46629 0,-0.29143 0.17485,-0.46628 0.46628,-0.46628 z m 22.3815,0 13.98844,0 c 0.23313,0 0.46627,0.17485 0.46627,0.46628 0,0.23314 -0.23314,0.46629 -0.46627,0.46629 l -13.98844,0 c -0.29143,0 -0.46628,-0.23315 -0.46628,-0.46629 0,-0.29143 0.17485,-0.46628 0.46628,-0.46628 z m 22.38149,0 13.98844,0 c 0.23314,0 0.46628,0.17485 0.46628,0.46628 0,0.23314 -0.23314,0.46629 -0.46628,0.46629 l -13.98844,0 c -0.29142,0 -0.46628,-0.23315 -0.46628,-0.46629 0,-0.29143 0.17486,-0.46628 0.46628,-0.46628 z m 22.3815,0 12.88102,0 c 0.23314,0 0.46628,0.17485 0.46628,0.46628 0,0.23314 -0.23314,0.46629 -0.46628,0.46629 l -12.88102,0 c -0.29142,0 -0.46628,-0.23315 -0.46628,-0.46629 0,-0.29143 0.17486,-0.46628 0.46628,-0.46628 z"
         style="fill:#944266;fill-opacity:1;fill-rule:nonzero;stroke:#944266;stroke-width:0.93256235px;stroke-linecap:butt;stroke-linejoin:bevel;stroke-opacity:1;stroke-dasharray:none"
         inkscape:connector-curvature="0" />
      <path
         id="path8997"
         d="m 581.59366,326.07993 0,-13.98843 c 0,-0.29143 0.17485,-0.46629 0.46628,-0.46629 0.23314,0 0.46628,0.17486 0.46628,0.46629 l 0,13.98843 c 0,0.23314 -0.23314,0.46629 -0.46628,0.46629 -0.29143,0 -0.46628,-0.23315 -0.46628,-0.46629 z m 0,-22.3815 0,-13.98843 c 0,-0.29142 0.17485,-0.46628 0.46628,-0.46628 0.23314,0 0.46628,0.17486 0.46628,0.46628 l 0,13.98843 c 0,0.23315 -0.23314,0.46629 -0.46628,0.46629 -0.29143,0 -0.46628,-0.23314 -0.46628,-0.46629 z m 0,-22.38149 0,-13.98844 c 0,-0.29142 0.17485,-0.46628 0.46628,-0.46628 0.23314,0 0.46628,0.17486 0.46628,0.46628 l 0,13.98844 c 0,0.23314 -0.23314,0.46628 -0.46628,0.46628 -0.29143,0 -0.46628,-0.23314 -0.46628,-0.46628 z m 0,-22.38149 0,-13.98844 c 0,-0.29143 0.17485,-0.46629 0.46628,-0.46629 0.23314,0 0.46628,0.17486 0.46628,0.46629 l 0,13.98844 c 0,0.23313 -0.23314,0.46627 -0.46628,0.46627 -0.29143,0 -0.46628,-0.23314 -0.46628,-0.46627 z m 0,-22.3815 0,-13.98844 c 0,-0.29143 0.17485,-0.46628 0.46628,-0.46628 0.23314,0 0.46628,0.17485 0.46628,0.46628 l 0,13.98844 c 0,0.23313 -0.23314,0.46628 -0.46628,0.46628 -0.29143,0 -0.46628,-0.23315 -0.46628,-0.46628 z m 0,-22.3815 0,-13.98844 c 0,-0.29142 0.17485,-0.46628 0.46628,-0.46628 0.23314,0 0.46628,0.17486 0.46628,0.46628 l 0,13.98844 c 0,0.23314 -0.23314,0.46628 -0.46628,0.46628 -0.29143,0 -0.46628,-0.23314 -0.46628,-0.46628 z m 0,-22.3815 0,-13.98843 c 0,-0.29143 0.17485,-0.46628 0.46628,-0.46628 0.23314,0 0.46628,0.17485 0.46628,0.46628 l 0,13.98843 c 0,0.23314 -0.23314,0.46628 -0.46628,0.46628 -0.29143,0 -0.46628,-0.23314 -0.46628,-0.46628 z"
         style="fill:#944266;fill-opacity:1;fill-rule:nonzero;stroke:#944266;stroke-width:0.93256235px;stroke-linecap:butt;stroke-linejoin:bevel;stroke-opacity:1;stroke-dasharray:none"
         inkscape:connector-curvature="0" />
      <path
         id="path8999"
         d="m 582.05994,175.00483 -13.98844,0 c -0.29142,0 -0.46628,-0.23314 -0.46628,-0.46628 0,-0.29143 0.17486,-0.46628 0.46628,-0.46628 l 13.98844,0 c 0.23314,0 0.46628,0.17485 0.46628,0.46628 0,0.23314 -0.23314,0.46628 -0.46628,0.46628 z m -22.3815,0 -13.98844,0 c -0.29142,0 -0.46627,-0.23314 -0.46627,-0.46628 0,-0.29143 0.17485,-0.46628 0.46627,-0.46628 l 13.98844,0 c 0.23315,0 0.46628,0.17485 0.46628,0.46628 0,0.23314 -0.23313,0.46628 -0.46628,0.46628 z m -22.38149,0 -13.98844,0 c -0.29142,0 -0.46628,-0.23314 -0.46628,-0.46628 0,-0.29143 0.17486,-0.46628 0.46628,-0.46628 l 13.98844,0 c 0.23314,0 0.46628,0.17485 0.46628,0.46628 0,0.23314 -0.23314,0.46628 -0.46628,0.46628 z m -22.3815,0 -13.98843,0 c -0.29143,0 -0.46629,-0.23314 -0.46629,-0.46628 0,-0.29143 0.17486,-0.46628 0.46629,-0.46628 l 13.98843,0 c 0.23314,0 0.46628,0.17485 0.46628,0.46628 0,0.23314 -0.23314,0.46628 -0.46628,0.46628 z m -22.3815,0 -13.98843,0 c -0.29143,0 -0.46629,-0.23314 -0.46629,-0.46628 0,-0.29143 0.17486,-0.46628 0.46629,-0.46628 l 13.98843,0 c 0.23314,0 0.46629,0.17485 0.46629,0.46628 0,0.23314 -0.23315,0.46628 -0.46629,0.46628 z m -22.3815,0 -13.98843,0 c -0.29142,0 -0.46628,-0.23314 -0.46628,-0.46628 0,-0.29143 0.17486,-0.46628 0.46628,-0.46628 l 13.98843,0 c 0.23315,0 0.46629,0.17485 0.46629,0.46628 0,0.23314 -0.23314,0.46628 -0.46629,0.46628 z m -22.38149,0 -13.98844,0 c -0.29142,0 -0.46627,-0.23314 -0.46627,-0.46628 0,-0.29143 0.17485,-0.46628 0.46627,-0.46628 l 13.98844,0 c 0.23314,0 0.46628,0.17485 0.46628,0.46628 0,0.23314 -0.23314,0.46628 -0.46628,0.46628 z m -22.38149,0 -13.98844,0 c -0.29143,0 -0.46628,-0.23314 -0.46628,-0.46628 0,-0.29143 0.17485,-0.46628 0.46628,-0.46628 l 13.98844,0 c 0.23313,0 0.46627,0.17485 0.46627,0.46628 0,0.23314 -0.23314,0.46628 -0.46627,0.46628 z m -22.3815,0 -13.98844,0 c -0.29143,0 -0.46628,-0.23314 -0.46628,-0.46628 0,-0.29143 0.17485,-0.46628 0.46628,-0.46628 l 13.98844,0 c 0.23314,0 0.46628,0.17485 0.46628,0.46628 0,0.23314 -0.23314,0.46628 -0.46628,0.46628 z m -22.3815,0 -13.98844,0 c -0.29142,0 -0.46628,-0.23314 -0.46628,-0.46628 0,-0.29143 0.17486,-0.46628 0.46628,-0.46628 l 13.98844,0 c 0.23314,0 0.46628,0.17485 0.46628,0.46628 0,0.23314 -0.23314,0.46628 -0.46628,0.46628 z m -22.3815,0 -13.98843,0 c -0.29142,0 -0.46628,-0.23314 -0.46628,-0.46628 0,-0.29143 0.17486,-0.46628 0.46628,-0.46628 l 13.98843,0 c 0.23315,0 0.46629,0.17485 0.46629,0.46628 0,0.23314 -0.23314,0.46628 -0.46629,0.46628 z m -22.38149,0 -13.98844,0 c -0.29142,0 -0.46628,-0.23314 -0.46628,-0.46628 0,-0.29143 0.17486,-0.46628 0.46628,-0.46628 l 13.98844,0 c 0.23314,0 0.46628,0.17485 0.46628,0.46628 0,0.23314 -0.23314,0.46628 -0.46628,0.46628 z m -22.3815,0 -13.98843,0 c -0.29143,0 -0.46629,-0.23314 -0.46629,-0.46628 0,-0.29143 0.17486,-0.46628 0.46629,-0.46628 l 13.98843,0 c 0.23314,0 0.46628,0.17485 0.46628,0.46628 0,0.23314 -0.23314,0.46628 -0.46628,0.46628 z m -22.38149,0 -13.98844,0 c -0.29143,0 -0.46629,-0.23314 -0.46629,-0.46628 0,-0.29143 0.17486,-0.46628 0.46629,-0.46628 l 13.98844,0 c 0.23313,0 0.46627,0.17485 0.46627,0.46628 0,0.23314 -0.23314,0.46628 -0.46627,0.46628 z m -22.3815,0 -13.98844,0 c -0.29142,0 -0.46628,-0.23314 -0.46628,-0.46628 0,-0.29143 0.17486,-0.46628 0.46628,-0.46628 l 13.98844,0 c 0.23313,0 0.46628,0.17485 0.46628,0.46628 0,0.23314 -0.23315,0.46628 -0.46628,0.46628 z m -22.3815,0 -13.98844,0 c -0.29142,0 -0.46627,-0.23314 -0.46627,-0.46628 0,-0.29143 0.17485,-0.46628 0.46627,-0.46628 l 13.98844,0 c 0.23314,0 0.46628,0.17485 0.46628,0.46628 0,0.23314 -0.23314,0.46628 -0.46628,0.46628 z m -22.3815,0 -13.98843,0 c -0.29143,0 -0.46628,-0.23314 -0.46628,-0.46628 0,-0.29143 0.17485,-0.46628 0.46628,-0.46628 l 13.98843,0 c 0.23315,0 0.46628,0.17485 0.46628,0.46628 0,0.23314 -0.23313,0.46628 -0.46628,0.46628 z m -22.38149,0 -13.98843,0 c -0.29143,0 -0.46629,-0.23314 -0.46629,-0.46628 0,-0.29143 0.17486,-0.46628 0.46629,-0.46628 l 13.98843,0 c 0.23314,0 0.46628,0.17485 0.46628,0.46628 0,0.23314 -0.23314,0.46628 -0.46628,0.46628 z m -22.3815,0 -13.98843,0 c -0.29143,0 -0.46629,-0.23314 -0.46629,-0.46628 0,-0.29143 0.17486,-0.46628 0.46629,-0.46628 l 13.98843,0 c 0.23314,0 0.46628,0.17485 0.46628,0.46628 0,0.23314 -0.23314,0.46628 -0.46628,0.46628 z m -22.3815,0 -13.98843,0 c -0.29143,0 -0.46628,-0.23314 -0.46628,-0.46628 0,-0.29143 0.17485,-0.46628 0.46628,-0.46628 l 13.98843,0 c 0.23314,0 0.46629,0.17485 0.46629,0.46628 0,0.23314 -0.23315,0.46628 -0.46629,0.46628 z m -22.38149,0 -13.98844,0 c -0.29142,0 -0.46628,-0.23314 -0.46628,-0.46628 0,-0.29143 0.17486,-0.46628 0.46628,-0.46628 l 13.98844,0 c 0.23314,0 0.46628,0.17485 0.46628,0.46628 0,0.23314 -0.23314,0.46628 -0.46628,0.46628 z m -22.3815,0 -12.881013,0 c -0.291426,0 -0.466285,-0.23314 -0.466285,-0.46628 0,-0.29143 0.174859,-0.46628 0.466285,-0.46628 l 12.881013,0 c 0.23314,0 0.46628,0.17485 0.46628,0.46628 0,0.23314 -0.23314,0.46628 -0.46628,0.46628 z"
         style="fill:#944266;fill-opacity:1;fill-rule:nonzero;stroke:#944266;stroke-width:0.93256235px;stroke-linecap:butt;stroke-linejoin:bevel;stroke-opacity:1;stroke-dasharray:none"
         inkscape:connector-curvature="0" />
    </g>
  </g>
</svg>
