<svg id="Ebene_1" data-name="Ebene 1" xmlns="http://www.w3.org/2000/svg" viewBox="0 0 3415.83 647.34"><defs><style>.cls-1,.cls-2{fill:#376eb5;}.cls-1{fill-rule:evenodd;}</style></defs><path id="i" class="cls-1" d="M3072,528.24V171.45a28.49,28.49,0,0,1,1.82-9.77,22,22,0,0,1,3.23-5.74,24.81,24.81,0,0,1,20-10,22.34,22.34,0,0,1,8,1.31,25,25,0,0,1,13.78,11.36,25.09,25.09,0,0,1,3.27,12.64V528.32A25.17,25.17,0,0,1,3097.17,554C3086.58,554,3072,545.86,3072,528.24Z" transform="translate(-147.18 -37.37)"/><circle id="i-Punkt" class="cls-2" cx="2949.32" cy="25.5" r="25.5"/><path id="l" class="cls-1" d="M2051,527.23V62.33c0-11.71,10.51-24.83,24.78-24.83,14.88,0,25.32,12.91,25.32,24.82,0,11.2,0,448.65,0,464.93,0,5.78-.38,8.24-1.91,12.41a21.16,21.16,0,0,1-5.41,8.1,26.37,26.37,0,0,1-7,4.38,28,28,0,0,1-11.32,1.86,24.8,24.8,0,0,1-10.79-2.72,25.49,25.49,0,0,1-6.4-4.74,21.13,21.13,0,0,1-4.63-6.44C2052.11,536.66,2051,534.47,2051,527.23Z" transform="translate(-147.18 -37.37)"/><path id="c2" class="cls-1" d="M3511.78,269.67c-3.05-4.73-36.34-61.77-109.52-72.37-39.49-5.72-102.7,7.91-141.13,54.92-17.24,21.08-31.79,47.6-33.78,101.35-1.11,29.86,8.37,55,20.58,75.06,14.39,23.66,32.76,40.17,44.52,47.59,0,0,18.59,12.48,37,18.72,11.37,3.85,25.21,8.1,44,8.91,28.68,1.23,56.62-5.66,76.24-16,20.7-10.89,29.67-19.26,38.32-27.85,11.39-11.72,19.15-21.81,24.28-30.84,3.74-5.85,3.53-7.05,6.46-10.44a24.48,24.48,0,0,1,10.15-7.27c7.91-2.88,15-2.11,22.29,2a26,26,0,0,1,11.1,15.41,29.79,29.79,0,0,1-1.16,16.57,28.72,28.72,0,0,1-4.33,7.47,221.1,221.1,0,0,1-19.19,27.17,194,194,0,0,1-32.06,31.11c-13.54,10.08-28.16,19.62-41.57,25.22-16.18,6.76-32.42,12.39-50.88,15.3-12.6,2-25.29,2.28-37.66,2.28-22.26,0-45.41-4.85-64.85-12.08-18.1-6.74-33-15.71-41.31-20.63A242.36,242.36,0,0,1,3222.5,480c-7.9-9.11-12.89-16.87-19.14-28.26-19.74-35.93-26.59-66.59-27-95.14a248.19,248.19,0,0,1,1.44-31.19c1.89-18.58,9.2-48.85,25.42-76.27,0,0,17.46-34.67,57.14-64.54a187.83,187.83,0,0,1,42-23.44c19.3-7.82,41-13.78,61.7-15.25a256.77,256.77,0,0,1,29.11-.17c24.48,1.28,53.81,8.21,69.06,16.07,19.55,9.29,27.63,15.19,35.95,20.71,5.12,3.4,11.53,8.22,17.9,13.49a179.92,179.92,0,0,1,24.37,24.64c5.94,7.47,13.54,20.28,17.41,27.19,3.15,5.62,4.53,12.51,1.72,22.21a22.66,22.66,0,0,1-6.89,10.58,23.14,23.14,0,0,1-7.47,4,30.94,30.94,0,0,1-8.44,1.37,25.21,25.21,0,0,1-16.63-5.55C3515.42,276.57,3513.82,272.82,3511.78,269.67Z" transform="translate(-147.18 -37.37)"/><path id="g" class="cls-1" d="M2674.78,599.2c5.27,2.29,6.07,4.57,24.12,13.2,7.39,3.53,13.78,6.53,21.29,9.3a160.86,160.86,0,0,0,23.72,7.12c21.48,4,36.4,6,53.65,6.27,10.36.14,27-2.1,36.86-4.74,15.55-4.15,24.74-7.38,33.2-12.29,37.46-21.74,50.92-41.2,58.6-52.13a134.06,134.06,0,0,0,14-26.11c3.41-8.29,4.23-9.85,6.53-20.65s4.32-34.08,5.18-41.57c0,0-14,21.62-44.56,41.57C2883.57,536,2847.48,553.73,2809,554s-66.21-5.78-87-14.31c-33.82-13.2-64.51-36.92-81.87-57.3-6.06-7.13-13.2-15.08-21-29.56-9-16.59-16.44-33.33-20.56-47.44-3.8-14.25-6.12-25.15-6.77-40.19a291,291,0,0,1,.21-35.72c1.43-19,6.54-37.06,11.93-51.65a211.47,211.47,0,0,1,25.31-48.3A191,191,0,0,1,2675,184.12c7.24-5.07,17.07-12,29.56-18a241.17,241.17,0,0,1,35.83-13.62c14.3-4.34,35.83-7.77,54.84-7.56a195.48,195.48,0,0,1,39.33,3.68c19.56,4.08,35.42,8.4,54.12,19,22.44,12.71,45.11,28.29,61.32,47V171.87c0-21.27,17.56-25.87,24.94-25.87,7.75,0,24.06,5.82,24.06,25.72V476s0,9.58,0,21c0,0-1.11,24.38-3.28,34.92-1.36,6.56-5.28,18.17-7.91,24.53-1.19,2.89-6.14,14-7.76,17.79a114.52,114.52,0,0,1-10.54,18.38c-4.69,7-2.39,3.81-11,15.12-2.58,3.39-6,6.57-9,10.25-4.9,6.15-6.88,7-11.14,11.38-3.11,3.17-5.85,5.32-10.17,9a189.58,189.58,0,0,1-25.1,18.05,169.2,169.2,0,0,1-23.81,12.37,241.44,241.44,0,0,1-27.19,9,183.56,183.56,0,0,1-25.76,5.42c-16.89,2.16-41.51,1.74-54.3.57-14.42-1.32-19.39-2.13-27-3.38-6.31-1-14-2.92-21-4.79-9.63-2.59-17.72-5.62-29.61-10.2-5.33-2-15.4-6.36-23.82-10.53a212.21,212.21,0,0,1-18.7-10.55,26.53,26.53,0,0,1-7.48-6.35,22.93,22.93,0,0,1-2.73-4.28,31,31,0,0,1-2.4-7.49,28.45,28.45,0,0,1,1.09-12,25.05,25.05,0,0,1,7.36-10.82C2658.78,595.1,2669.42,596.87,2674.78,599.2Zm125-404.17c11.91,0,28.64,2.76,41.68,6.79,14.21,4.38,30.59,12.92,43.15,22.38,16.25,12.24,26.13,21.51,37.68,38.13,10,14.32,17.33,31,22.21,50.07,2.83,11.06,4,21.63,4.39,34.4a146.69,146.69,0,0,1-4.75,40.33,153.61,153.61,0,0,1-23.37,50.49s-5.71,9.17-18.24,21.69a138.25,138.25,0,0,1-43,29.52c-12.25,5.26-27.42,13.16-61.79,14,0,0-19.39,1.23-46-6.31-11.71-3.32-25.95-9.85-38.9-17.4-12.61-7.36-24.72-17.41-36.57-32.16a151.1,151.1,0,0,1-29.5-54.75c-4.72-16.52-7.56-39.62-4.54-61.08,4.1-29.15,10.3-43.45,17.73-57.19,0,0,12.24-20,25.83-33.59a140.8,140.8,0,0,1,37.13-26.6C2747.28,201.92,2770.88,195,2799.81,195Z" transform="translate(-147.18 -37.37)"/><path id="o3" class="cls-1" d="M2358.28,196c65.34,0,130.48,48.29,146.48,118.35,6.15,26.92,7.65,63.67-11.3,102.74-20.91,43.09-67.68,86.75-138.49,86.75-42,0-89.64-19.41-118.65-55.86-23.62-29.69-35.35-57.78-34.78-101.89.46-35.24,13.33-79.44,53.8-113.5C2271.82,218.71,2311.67,196,2358.28,196Zm75.53-34.82s64.14,27.79,91,75c0,0,28.84,42.91,33.12,91.43,0,0,3,30.62-1.21,54.08,0,0-1.41,14.29-10.85,41a172,172,0,0,1-14.69,30.63,252,252,0,0,1-24.9,33.86s-24.63,30.2-71.47,51c0,0-19.73,7.89-38,12,0,0-33.88,8.24-78.11.77,0,0-39.23-4.83-81.17-34,0,0-41.86-29.21-59.51-65.26,0,0-22.76-38.44-25.45-75.87,0,0-5.12-31.57,3.1-69.58a240.22,240.22,0,0,1,13.93-41.52s10-21.07,22.33-37.34c0,0,13.55-18,29.79-31.84,0,0,22.16-19.23,42.82-28.46,0,0,39.87-20.36,81.27-20.92C2345.81,146.16,2390.37,142.73,2433.81,161.16Z" transform="translate(-147.18 -37.37)"/><path id="o2" class="cls-1" d="M1794.29,196.06c65.35,0,130.48,48.29,146.49,118.35,6.15,26.92,7.65,63.67-11.31,102.74-20.9,43.09-67.67,86.75-138.48,86.75-42,0-89.64-19.41-118.65-55.86-23.63-29.69-35.36-57.78-34.78-101.89.46-35.24,13.32-79.44,53.8-113.5C1707.83,218.79,1747.68,196.06,1794.29,196.06Zm75.53-34.82s64.14,27.79,91,75c0,0,28.84,42.91,33.12,91.43,0,0,3,30.62-1.2,54.08,0,0-1.42,14.29-10.85,41a171.68,171.68,0,0,1-14.7,30.63,252,252,0,0,1-24.9,33.86s-24.62,30.2-71.47,51c0,0-19.72,7.89-38,12,0,0-33.87,8.24-78.1.77,0,0-39.24-4.83-81.17-34,0,0-41.87-29.21-59.52-65.26,0,0-22.75-38.44-25.45-75.87,0,0-5.12-31.57,3.11-69.58a239.68,239.68,0,0,1,13.92-41.52s10-21.07,22.33-37.34c0,0,13.55-18,29.79-31.84,0,0,22.17-19.23,42.82-28.46,0,0,39.87-20.36,81.27-20.92C1781.82,146.24,1826.38,142.81,1869.82,161.24Z" transform="translate(-147.18 -37.37)"/><path id="n" class="cls-1" d="M1387,146a150.19,150.19,0,0,1,72,20.14c13.38,7.81,23.92,15.43,33.29,24.41,14.75,14.15,24.47,28.74,27.74,34.63,0,0,13.31,18.68,19.75,51a170.17,170.17,0,0,1,2.67,18.75c.36,4.28.48,8.49.57,13.1,0,0,.23,203.63,0,219.15-.06,4.06,0,5.89-.77,9a21.14,21.14,0,0,1-12.84,15.62,25.34,25.34,0,0,1-10.22,2.23,28,28,0,0,1-10.2-1.66c-4.2-1.69-9.5-4.8-12.48-10.37a28.77,28.77,0,0,1-3.69-14.82c0-9.09.1-188.88.1-188.88V314.21c0-2.88.49-15.62-2.37-28.4-2.74-12.24-7.14-24.52-13.44-34.75,0,0-9.36-18.44-30.89-33.8-16.24-11.59-38.81-21.87-66-21.53a117.3,117.3,0,0,0-26.1,3.34,133.79,133.79,0,0,0-22.54,8.22,115.19,115.19,0,0,0-35.61,27s-18.84,19.85-25.73,52.9c-2.48,11.9-2.2,25-2.24,42.81V527.23c0,23.7-15.29,26.77-24,26.77-8,0-25.17-5.32-25.17-26.74,0-3.89-1.22-176.5-1.43-218.89,0-5.94.3-9.62.3-9.62a164.9,164.9,0,0,1,4.2-28.3,177.53,177.53,0,0,1,8.58-25.85c7.54-17.65,18.23-33.35,32.67-49.12a146.71,146.71,0,0,1,50.25-35.35,186.56,186.56,0,0,1,27.22-9.44C1354.75,147.14,1373.51,145.23,1387,146Z" transform="translate(-147.18 -37.37)"/><path id="o1" class="cls-1" d="M964.37,196.14c65.35,0,130.48,48.29,146.49,118.35,6.15,26.92,7.65,63.67-11.31,102.74-20.9,43.09-67.67,86.75-138.48,86.75-42,0-89.64-19.41-118.65-55.86-23.62-29.69-35.36-57.78-34.78-101.89.46-35.24,13.32-79.44,53.8-113.5C877.91,218.87,917.77,196.14,964.37,196.14Zm75.53-34.82s64.14,27.79,91,75c0,0,28.84,42.91,33.13,91.43,0,0,3,30.62-1.21,54.08,0,0-1.41,14.29-10.85,41a171.68,171.68,0,0,1-14.7,30.63,252.49,252.49,0,0,1-24.9,33.87s-24.62,30.19-71.47,51c0,0-19.72,7.89-38,12,0,0-33.87,8.24-78.1.77,0,0-39.24-4.83-81.17-34,0,0-41.87-29.21-59.51-65.26,0,0-22.76-38.44-25.46-75.87,0,0-5.12-31.57,3.11-69.58a239.22,239.22,0,0,1,13.93-41.52s10-21.07,22.33-37.34c0,0,13.54-18,29.78-31.84,0,0,22.17-19.23,42.83-28.46,0,0,39.86-20.36,81.26-20.92C951.9,146.32,996.46,142.89,1039.9,161.32Z" transform="translate(-147.18 -37.37)"/><path id="r" class="cls-1" d="M709.88,146.06c.66,0,18.67,1,23.52,19.72,3.52,13.59-4.12,30-22.59,30.38-7.5,0-18.2,3.81-20.62,4.75a46,46,0,0,0-13.46,8c-4.28,3.51-9.68,8.66-11.93,11.91-3.33,4.81-7.6,11.06-9.15,16.15-3.53,11.61-2.39,12.86-3.77,19.73,0,0,.56,23.8.12,44.32l.09,226.82c0,22.62-15.82,26.26-25.05,26.26-8.9,0-25.06-6.61-25-26.1,0-10.64-.11-257-.09-259.32.09-11.28-.23-20.54,2.76-34.7a132.35,132.35,0,0,1,6-19c.86-2,1.71-3.91,2.76-6a118.31,118.31,0,0,1,21.2-29.79,115.79,115.79,0,0,1,24.56-18.74,125.08,125.08,0,0,1,19.88-8.74c7.8-2.33,18.79-5.73,30.51-5.61" transform="translate(-147.18 -37.37)"/><path id="c1" class="cls-1" d="M482.67,269.65c-3.06-4.73-36.34-61.77-109.52-72.37-39.49-5.72-102.7,7.91-141.14,54.91-17.24,21.09-31.79,47.61-33.78,101.36-1.1,29.86,8.37,55,20.58,75.06,14.4,23.66,32.76,40.17,44.53,47.59,0,0,18.58,12.48,37,18.72,11.36,3.84,25.21,8.09,44,8.9,28.69,1.24,56.63-5.65,76.24-16,20.7-10.89,29.68-19.26,38.33-27.85,11.38-11.72,19.15-21.82,24.27-30.84,3.74-5.85,3.54-7.05,6.47-10.44a24.4,24.4,0,0,1,10.14-7.27c7.92-2.88,15-2.11,22.3,2a26.14,26.14,0,0,1,11.1,15.42A29.75,29.75,0,0,1,532,445.42a28.62,28.62,0,0,1-4.34,7.47,220.53,220.53,0,0,1-19.18,27.17,193.71,193.71,0,0,1-32.07,31.12c-13.53,10.08-28.16,19.62-41.57,25.22-16.17,6.75-32.41,12.39-50.87,15.3-12.61,2-25.3,2.28-37.66,2.28-22.26,0-45.42-4.85-64.86-12.08-18.09-6.74-33-15.71-41.3-20.63A243.09,243.09,0,0,1,193.38,480c-7.9-9.12-12.88-16.87-19.14-28.26-19.74-35.94-26.58-66.6-27-95.14a247.43,247.43,0,0,1,1.45-31.2c1.89-18.57,9.2-48.84,25.41-76.26,0,0,17.46-34.67,57.14-64.54a187.69,187.69,0,0,1,42-23.45c19.29-7.81,41-13.77,61.69-15.24a258.28,258.28,0,0,1,29.12-.18c24.47,1.29,53.8,8.21,69.06,16.07,19.54,9.3,27.63,15.2,35.95,20.72,5.12,3.4,11.52,8.22,17.89,13.49a179.92,179.92,0,0,1,24.37,24.64c5.94,7.47,13.55,20.27,17.41,27.19,3.15,5.62,4.53,12.5,1.72,22.2a22.54,22.54,0,0,1-6.89,10.58,22.88,22.88,0,0,1-7.46,4.06,31.86,31.86,0,0,1-8.44,1.37,25.9,25.9,0,0,1-10.32-1.84,25.61,25.61,0,0,1-6.31-3.71C486.31,276.55,484.7,272.79,482.67,269.65Z" transform="translate(-147.18 -37.37)"/></svg>